Patient4_TMGait_0pt5_01_right_07_GRF.mot
version=1
nRows=39
nColumns=19
inDegrees=no
endheader
time	F1x	F1y	F1z	M1x	M1y	M1z	F2x	F2y	F2z	M2x	M2y	M2z	EC1x	EC1y	EC1z	EC2x	EC2y	EC2z
8.7	-22.5492	769.0425	58.0108	-286.112	-43.6779	532.4309	-0.81502	8.0073	-0.027381	0.96361	5.3584	-3.1448	-0.0592	0.0182	-0.0073	-0.0462	0.0165	0.9585
8.7139	-15.0148	753.347	58.4055	-280.5357	-41.6569	520.6379	-0.75775	5.9176	-0.031465	0.85106	3.75	-1.6902	-0.0592	0.0182	-0.0073	-0.0462	0.0165	0.9585
8.7277	-8.4298	737.806	58.5775	-274.8379	-39.6665	508.5578	-0.71813	4.1708	-0.031579	0.77165	2.3686	-0.43432	-0.0592	0.0182	-0.0073	-0.0462	0.0165	0.9585
8.7416	-3.2359	724.2396	58.5554	-269.6675	-37.8802	497.5629	-0.70218	2.8762	-0.016923	0.7281	1.2969	0.5574	-0.0592	0.0182	-0.0073	-0.0462	0.0165	0.9585
8.7554	0.46616	714.1939	58.3994	-265.6019	-36.3968	488.8347	-0.71245	2.021	-0.0034286	0.71315	0.55931	1.286	-0.0592	0.0182	-0.0073	-0.0462	0.0165	0.9585
8.7693	2.7987	708.6838	58.1804	-263.0373	-35.2516	483.155	-0.74417	1.5267	0.017518	0.71607	0.1022	1.7796	-0.0592	0.0182	-0.0073	-0.0462	0.0165	0.9585
8.7831	4.0306	708.0527	57.9894	-262.1282	-34.4445	480.7849	-0.8014	1.2771	0.032592	0.71904	-0.12948	2.0686	-0.0592	0.0182	-0.0073	-0.0462	0.0165	0.9585
8.797	4.4768	712.019	57.9023	-262.7991	-33.9432	481.5206	-0.87807	1.1348	0.048681	0.69794	-0.21558	2.1586	-0.0592	0.0182	-0.0073	-0.0462	0.0165	0.9585
8.8109	4.4747	719.8059	57.9838	-264.7892	-33.6964	484.7793	-0.97382	0.96617	0.058187	0.62507	-0.20874	2.0409	-0.0592	0.0182	-0.0073	-0.0462	0.0165	0.9585
8.8247	4.3434	730.2843	58.2563	-267.7041	-33.621	489.7208	-1.0853	0.64308	0.065142	0.46921	-0.15374	1.6875	-0.0592	0.0182	-0.0073	-0.0462	0.0165	0.9585
8.8386	4.3469	742.1132	58.718	-271.066	-33.6351	495.3631	-1.2027	0.052173	0.069142	0.19884	-0.079003	1.0629	-0.0592	0.0182	-0.0073	-0.0462	0.0165	0.9585
8.8524	4.7049	753.8783	59.3372	-274.3684	-33.6447	500.6811	-1.3085	-0.89766	0.067887	-0.21325	-0.0045137	0.13323	-0.0592	0.0182	-0.0073	-0.0462	0.0165	0.9585
8.8663	5.5653	764.2824	60.0715	-277.1477	-33.568	504.7734	-1.3677	-2.2569	0.059758	-0.781	0.051678	-1.1241	-0.0592	0.0182	-0.0073	-0.0462	0.0165	0.9585
8.8801	7.0165	772.2938	60.8729	-279.0364	-33.3366	506.9462	-1.3329	-3.9964	0.039509	-1.4904	0.074581	-2.6696	-0.0592	0.0182	-0.0073	-0.0462	0.0165	0.9585
8.894	9.0711	777.2263	61.7052	-279.7917	-32.9184	506.7772	-1.1303	-5.9502	0.011913	-2.2754	0.034791	-4.3565	-0.0592	0.0182	-0.0073	-0.0462	0.0165	0.9585
8.9079	11.6593	778.7426	62.5237	-279.2998	-32.3034	504.1238	-0.66407	-7.7567	-0.024198	-2.9952	-0.10235	-5.8841	-0.0592	0.0182	-0.0073	-0.0462	0.0165	0.9585
8.9217	14.6709	776.8	63.2793	-277.5591	-31.4998	499.0524	0.16797	-8.7894	-0.05585	-3.407	-0.38809	-6.7378	-0.0592	0.0182	-0.0073	-0.0462	0.0165	0.9585
8.9356	17.9715	771.6246	63.9108	-274.6688	-30.5167	491.8207	1.4643	-8.1007	-0.08304	-3.1376	-0.85334	-6.1491	-0.0592	0.0182	-0.0073	-0.0462	0.0165	0.9585
8.9494	21.4508	763.6608	64.3771	-270.8064	-29.371	482.8093	3.2752	-4.396	-0.09925	-1.6697	-1.5129	-3.0747	-0.0592	0.0182	-0.0073	-0.0462	0.0165	0.9585
8.9633	25.0348	753.5149	64.6571	-266.2048	-28.0786	472.4795	5.5521	3.9368	-0.10757	1.6439	-2.34	3.7803	-0.0592	0.0182	-0.0073	-0.0462	0.0165	0.9585
8.9771	28.6719	741.8247	64.7351	-261.1068	-26.6495	461.296	8.097	18.6838	-0.1053	7.5237	-3.2573	15.8384	-0.0592	0.0182	-0.0073	-0.0462	0.0165	0.9585
8.991	32.3276	729.0513	64.5672	-255.6938	-25.0709	449.5886	10.4668	41.4906	-0.10005	16.6366	-4.0859	34.4125	-0.0592	0.0182	-0.0073	-0.0462	0.0165	0.9585
9.0049	35.935	715.2859	64.0608	-250.0191	-23.3106	437.463	11.8852	73.3026	-0.09672	29.3759	-4.5216	60.2613	-0.0592	0.0182	-0.0073	-0.0462	0.0165	0.9585
9.0187	39.3973	700.1247	63.082	-243.9646	-21.3297	424.7286	11.1844	113.5391	-0.11078	45.5324	-4.1019	92.9091	-0.0592	0.0182	-0.0073	-0.0462	0.0165	0.9585
9.0326	42.5718	682.727	61.4845	-237.2587	-19.1015	410.9404	7.3774	159.5389	-0.20681	64.0479	-2.3925	130.2329	-0.0592	0.0182	-0.0073	-0.0462	0.0165	0.9585
9.0464	45.2683	662.1169	59.1628	-229.575	-16.6437	395.5796	0.82772	206.5821	-0.63214	83.0077	0.656	168.4378	-0.0592	0.0182	-0.0073	-0.0462	0.0165	0.9585
9.0603	47.3107	637.5847	56.124	-220.6708	-14.0366	378.2618	-6.7942	248.9538	-1.6113	100.1048	4.5509	202.8124	-0.0592	0.0182	-0.0073	-0.0462	0.0165	0.9585
9.0741	48.5898	609.0339	52.5128	-210.5029	-11.4124	358.9532	-13.9504	282.9604	-3.1177	113.8444	8.6518	230.2365	-0.0592	0.0182	-0.0073	-0.0462	0.0165	0.9585
9.088	49.1211	577.0471	48.5603	-199.2526	-8.9038	337.9991	-19.7902	308.4388	-4.7532	124.1667	12.2821	250.499	-0.0592	0.0182	-0.0073	-0.0462	0.0165	0.9585
9.1019	49.0349	542.6136	44.4984	-187.2386	-6.5975	315.9773	-24.0822	327.5212	-6.1688	131.9343	15.0713	265.3412	-0.0592	0.0182	-0.0073	-0.0462	0.0165	0.9585
9.1157	48.4829	506.7184	40.4622	-174.7824	-4.5097	293.4606	-26.9453	343.1483	-7.111	138.3276	16.8665	277.1367	-0.0592	0.0182	-0.0073	-0.0462	0.0165	0.9585
9.1296	47.5599	469.9738	36.4956	-162.0826	-2.6261	270.8007	-28.631	358.2853	-7.707	144.5107	17.8936	288.254	-0.0592	0.0182	-0.0073	-0.0462	0.0165	0.9585
9.1434	46.2337	432.4494	32.611	-149.1471	-0.96256	248.0452	-29.4491	375.6264	-8.1854	151.5215	18.4597	300.8279	-0.0592	0.0182	-0.0073	-0.0462	0.0165	0.9585
9.1573	44.3397	393.7354	28.8211	-135.8166	0.4187	224.9553	-29.7624	397.2877	-9.0062	160.1452	19.0815	316.5459	-0.0592	0.0182	-0.0073	-0.0462	0.0165	0.9585
9.1711	41.6189	353.2962	25.1588	-121.8898	1.408	201.2202	-29.9792	424.5589	-10.5964	170.8329	20.2397	336.4433	-0.0592	0.0182	-0.0073	-0.0462	0.0165	0.9585
9.185	37.8091	310.8736	21.6546	-107.2676	1.8972	176.6735	-30.4855	457.8829	-13.4003	183.7017	22.4234	360.8607	-0.0592	0.0182	-0.0073	-0.0462	0.0165	0.9585
9.1989	32.7752	266.8364	18.3386	-92.0756	1.8246	151.4874	-31.5765	497.0897	-17.6072	198.6416	25.8717	389.6281	-0.0592	0.0182	-0.0073	-0.0462	0.0165	0.9585
9.2127	26.6272	222.2923	15.248	-76.7031	1.2191	126.2326	-33.3548	541.4559	-23.1338	215.348	30.5368	422.1275	-0.0592	0.0182	-0.0073	-0.0462	0.0165	0.9585
9.2266	19.7724	178.9204	12.4368	-61.7389	0.21134	101.7726	-35.6941	589.5489	-29.6491	233.2635	36.0988	457.1879	-0.0592	0.0182	-0.0073	-0.0462	0.0165	0.9585
